<svg xmlns="http://www.w3.org/2000/svg" width="1000" height="240" viewBox="0 0 1000 240" role="img" aria-labelledby="title desc" shape-rendering="crispEdges">
<title id="title">CARBON LEDGER</title><desc id="desc">Pixel art project card for CARBON LEDGER.</desc>
<rect x="0" y="0" width="1000" height="240" fill="#0b1020"/>
<path d="M0 24H1000 M0 48H1000 M0 72H1000 M0 96H1000 M0 120H1000 M0 144H1000 M0 168H1000 M0 192H1000 M0 216H1000" stroke="#162138" stroke-width="1"/>
<path d="M24 0V240 M48 0V240 M72 0V240 M96 0V240 M120 0V240 M144 0V240 M168 0V240 M192 0V240 M216 0V240 M240 0V240 M264 0V240 M288 0V240 M312 0V240 M336 0V240 M360 0V240 M384 0V240 M408 0V240 M432 0V240 M456 0V240 M480 0V240 M504 0V240 M528 0V240 M552 0V240 M576 0V240 M600 0V240 M624 0V240 M648 0V240 M672 0V240 M696 0V240 M720 0V240 M744 0V240 M768 0V240 M792 0V240 M816 0V240 M840 0V240 M864 0V240 M888 0V240 M912 0V240 M936 0V240 M960 0V240 M984 0V240" stroke="#162138" stroke-width="1"/>
<rect x="8" y="8" width="984" height="224" fill="none" stroke="#34465e" stroke-width="3"/>
<rect x="8" y="8" width="46" height="6" fill="#b9ee9f"/><rect x="8" y="8" width="6" height="40" fill="#b9ee9f"/>
<rect x="946" y="226" width="46" height="6" fill="#b9ee9f"/><rect x="986" y="192" width="6" height="40" fill="#b9ee9f"/>
<rect x="44" y="35" width="12" height="12" fill="#b9ee9f"/>
<text x="69" y="47" fill="#b9ee9f" font-size="16" font-family="Consolas, Courier New, monospace" font-weight="700" letter-spacing="2">03 // SUSTAINABILITY</text>
<text x="42" y="110" fill="#f5f5ed" font-size="49" font-family="Consolas, Courier New, monospace" font-weight="700" letter-spacing="1">CARBON LEDGER</text>
<text x="44" y="147" fill="#a9bdd1" font-size="18" font-family="Consolas, Courier New, monospace" font-weight="400" letter-spacing="0">Track your organization's footprint.</text>
<rect x="44" y="180" width="103" height="32" fill="#111b30" stroke="#b9ee9f" stroke-width="2"/><text x="57" y="202" fill="#b9ee9f" font-size="14" font-family="Consolas, Courier New, monospace" font-weight="700" letter-spacing="0">NEXT.JS</text><rect x="157" y="180" width="136" height="32" fill="#111b30" stroke="#b9ee9f" stroke-width="2"/><text x="170" y="202" fill="#b9ee9f" font-size="14" font-family="Consolas, Courier New, monospace" font-weight="700" letter-spacing="0">TYPESCRIPT</text><rect x="303" y="180" width="114" height="32" fill="#111b30" stroke="#b9ee9f" stroke-width="2"/><text x="316" y="202" fill="#b9ee9f" font-size="14" font-family="Consolas, Courier New, monospace" font-weight="700" letter-spacing="0">SUPABASE</text>
<rect x="610" y="33" width="345" height="169" fill="#111b30" stroke="#34465e" stroke-width="3"/>
<rect x="610" y="33" width="345" height="27" fill="#19243b"/>
<rect x="624" y="44" width="7" height="7" fill="#b9ee9f"/><rect x="637" y="44" width="7" height="7" fill="#57708a"/><rect x="650" y="44" width="7" height="7" fill="#57708a"/>
<text x="680" y="51" fill="#a9bdd1" font-size="12" font-family="Consolas, Courier New, monospace" font-weight="700" letter-spacing="1">PROJECT_VIEW.EXE</text>
<text x="636" y="84" fill="#b8ecc6" font-size="12" font-family="Consolas, Courier New, monospace" font-weight="700" letter-spacing="0">SCOPE 1</text><text x="636" y="117" fill="#b8ecc6" font-size="12" font-family="Consolas, Courier New, monospace" font-weight="700" letter-spacing="0">SCOPE 2</text><text x="636" y="150" fill="#b8ecc6" font-size="12" font-family="Consolas, Courier New, monospace" font-weight="700" letter-spacing="0">SCOPE 3</text><rect x="728" y="73" width="181" height="13" fill="#264437"/><rect x="728" y="106" width="181" height="13" fill="#264437"/><rect x="728" y="139" width="181" height="13" fill="#264437"/><rect x="728" y="73" width="104" height="13" fill="#b9ee9f"/><rect x="728" y="106" width="72" height="13" fill="#73d9b8"/><rect x="728" y="139" width="143" height="13" fill="#65bfa9"/><text x="637" y="184" fill="#a4dfb6" font-size="11" font-family="Consolas, Courier New, monospace" font-weight="700" letter-spacing="0">TRACK  /  COMPARE  /  IMPROVE</text>
<rect x="610" y="207" width="18" height="4" fill="#b9ee9f"/><rect x="632" y="207" width="10" height="4" fill="#b9ee9f"/>
</svg>